<svg width="360" height="360" viewBox="0 0 360 360" fill="none" xmlns="http://www.w3.org/2000/svg">
<rect width="360" height="360" rx="50" fill="white"/>
<path fill-rule="evenodd" clip-rule="evenodd" d="M263.141 76.0387C260.404 76.3884 256.879 83.6158 254.666 93.4139C254.034 96.2134 253.804 97.2644 253.57 98.4244C253.333 99.5973 252.891 99.7122 251.951 98.8444C251.557 98.4809 250.589 97.6468 249.8 96.992C249.011 96.3372 248.205 95.6398 248.007 95.4427C247.811 95.2465 247.004 94.5492 246.215 93.8944C245.427 93.2396 244.637 92.566 244.462 92.3985C244.286 92.2311 243.749 91.8012 243.267 91.4426C242.786 91.084 242.337 90.7314 242.272 90.6581C242.206 90.5847 241.724 90.2083 241.202 89.821C240.678 89.4337 240.087 88.9869 239.887 88.8274C237.23 86.7055 231.503 83.0839 228.411 81.5712C226.768 80.7669 225.237 80.014 225.009 79.8991C224.781 79.7832 224.383 79.6891 224.126 79.6891C223.869 79.6891 223.592 79.5811 223.512 79.4503C223.219 78.9768 219.929 79.171 218.894 79.7218C216.11 81.2067 215.158 90.0855 214.88 117.165L214.763 128.503L213.641 128.484C213.023 128.474 211.604 128.28 210.487 128.052C203.936 126.719 202.161 126.694 119.792 126.767L45.7062 126.832L44.6311 127.475C40.4755 129.958 40.0064 134.283 43.6215 136.791L44.7511 137.573L121.405 137.636C183.976 137.685 198.06 137.753 198.06 138.006C198.06 138.312 193.657 142.722 191.129 144.949C190.406 145.586 188.894 146.98 187.768 148.047C185.419 150.273 181.159 154.201 179.06 156.076C177.713 157.279 174.405 160.325 169.989 164.427C168.93 165.412 167.472 166.74 166.75 167.376C166.029 168.013 164.793 169.144 164.005 169.888C163.215 170.632 161.496 172.205 160.182 173.384C158.868 174.562 157.524 175.796 157.195 176.124C156.865 176.451 155.524 177.687 154.213 178.868C152.903 180.05 151.603 181.232 151.326 181.495C151.048 181.757 150.132 182.606 149.288 183.381C148.444 184.155 146.624 185.829 145.244 187.1C143.864 188.372 142.253 189.833 141.665 190.347C138.085 193.474 131.694 199.683 129.831 201.844C127.306 204.772 127.248 206.504 129.64 207.633C131.947 208.72 132.705 208.765 151.776 208.952C166.04 209.092 169.924 209.194 170.016 209.432C170.079 209.598 169.177 211.007 168.011 212.562C166.843 214.117 165.378 216.088 164.754 216.941C164.13 217.794 163.488 218.654 163.328 218.851C163.168 219.047 162.505 219.961 161.856 220.88C161.206 221.799 160.612 222.605 160.536 222.67C160.459 222.735 160.139 223.165 159.824 223.625C159.174 224.577 157.506 226.863 154.688 230.666C153.618 232.111 151.996 234.312 151.085 235.559C150.172 236.805 149.298 237.987 149.141 238.184C148.983 238.382 148.446 239.106 147.946 239.794C146.591 241.656 144.688 244.246 140.71 249.643C140.468 249.971 139.636 251.099 138.86 252.15C137.581 253.884 136.228 255.727 133.779 259.072C133.299 259.729 132.268 261.131 131.487 262.189C130.706 263.246 129.88 264.375 129.651 264.696C128.663 266.075 125.419 270.495 123.615 272.917C120.466 277.143 120.151 277.671 120.151 278.707C120.151 281.71 123.988 281.001 127.56 277.336C127.625 277.268 128.216 276.786 128.874 276.263C129.53 275.741 130.213 275.175 130.388 275.007C130.564 274.837 131.101 274.406 131.583 274.048C132.064 273.69 132.512 273.34 132.578 273.27C132.643 273.201 133.343 272.609 134.131 271.957C134.92 271.303 135.619 270.708 135.684 270.635C135.781 270.526 138.016 268.685 140.302 266.829C140.545 266.633 141.03 266.221 141.38 265.916C141.731 265.61 142.717 264.788 143.571 264.089C144.909 262.995 149.095 259.506 150.986 257.91C151.317 257.631 152.123 256.975 152.778 256.455C153.431 255.934 154.02 255.45 154.087 255.38C154.152 255.311 154.852 254.718 155.64 254.064C156.429 253.412 157.128 252.817 157.193 252.746C157.259 252.674 157.796 252.245 158.388 251.792C158.979 251.339 159.517 250.905 159.583 250.829C159.693 250.7 163.166 247.843 164.215 247.017C164.465 246.821 165.177 246.23 165.797 245.705C166.417 245.18 167.127 244.588 167.376 244.391C167.625 244.193 168.865 243.173 170.131 242.123C171.398 241.074 172.89 239.844 173.448 239.392C174.005 238.939 174.581 238.455 174.729 238.318C174.877 238.179 175.536 237.64 176.193 237.12C176.849 236.599 177.442 236.112 177.507 236.035C177.572 235.96 178.809 234.942 180.255 233.772C181.701 232.602 183.268 231.317 183.738 230.917C185.037 229.809 190.054 225.65 190.893 224.985C191.932 224.162 195.327 221.367 195.431 221.251C195.497 221.176 195.944 220.823 196.425 220.464C196.907 220.106 197.445 219.675 197.62 219.508C197.796 219.341 198.582 218.668 199.366 218.013C200.893 216.737 200.855 216.769 203.556 214.566C204.542 213.763 205.84 212.686 206.442 212.175C207.827 210.997 209.891 209.322 210.7 208.72C211.043 208.465 211.761 207.874 212.297 207.407C213.248 206.578 214.72 205.368 215.945 204.409C216.28 204.147 216.991 203.553 217.524 203.09C218.057 202.626 219.001 201.843 219.622 201.348C220.243 200.853 220.889 200.32 221.056 200.162C221.224 200.004 221.899 199.448 222.556 198.927C223.213 198.407 223.805 197.923 223.87 197.852C223.936 197.781 224.42 197.409 224.945 197.024C229.142 193.955 230.452 191.122 228.729 188.832C227.582 187.307 226.049 186.896 219.569 186.377C217.793 186.235 215.213 186.01 213.832 185.876C212.453 185.743 210.141 185.531 208.695 185.406C200.847 184.728 197.849 184.439 194.355 184.023C193.304 183.897 191.53 183.689 190.412 183.561C188.259 183.312 187.544 183.121 187.544 182.793C187.544 182.602 189.637 179.48 189.934 179.227C190.011 179.161 190.563 178.409 191.16 177.556C192.84 175.153 196.817 169.588 197.044 169.321C197.156 169.189 198.1 167.847 199.144 166.337C200.187 164.828 201.171 163.431 201.33 163.234C201.707 162.769 203.859 159.769 206.298 156.311C214.053 145.316 215.494 143.59 218.753 141.396C219.53 140.873 220.219 140.382 220.285 140.306C220.351 140.23 220.889 139.836 221.48 139.429C222.569 138.681 222.685 138.564 224.018 136.857C226.089 134.204 226.131 133.826 225.53 123.61C225.24 118.69 225.456 108.567 226.022 100.575C226.142 98.8682 226.311 96.4779 226.396 95.2624C226.481 94.0469 226.651 92.9899 226.775 92.9137C227.212 92.6442 231.446 95.0147 232.836 96.3075C233.101 96.5541 233.959 97.2931 234.741 97.9489C238.003 100.683 245.203 108.464 249.312 113.698C251.249 116.164 253.307 118.328 254.79 119.455L256.435 120.705L263.991 120.834C273.174 120.99 277.161 121.398 282.035 122.673C282.576 122.815 283.449 123.043 283.974 123.179C284.5 123.314 285.146 123.509 285.409 123.61C285.671 123.711 286.371 123.926 286.962 124.087C287.554 124.248 288.253 124.464 288.516 124.567C288.779 124.67 289.37 124.885 289.83 125.046C290.29 125.205 290.989 125.477 291.383 125.648C291.778 125.82 292.638 126.171 293.295 126.43C295.722 127.386 299.511 129.173 301.54 130.32C302.263 130.729 303.608 131.462 304.527 131.949C313.367 136.631 320.735 144.182 323.06 150.94C323.15 151.204 323.335 151.686 323.47 152.015C323.606 152.343 323.847 152.988 324.005 153.448C324.163 153.906 324.378 154.498 324.483 154.76C324.588 155.023 324.784 155.56 324.918 155.954C326.881 161.711 328.434 165.151 330.476 168.254C333.417 172.73 337.863 176.896 342.407 179.438C344.721 180.733 349.13 182.807 349.567 182.807C349.697 182.807 350.15 183.017 350.573 183.275C351.618 183.91 351.429 183.951 345.036 184.481C340.107 184.89 338.761 186.231 341.136 188.365C343.68 190.653 345.497 192.61 345.872 193.47C346.091 193.973 346.369 194.571 346.49 194.798C346.768 195.324 346.772 196.533 346.499 197.073C346.384 197.301 346.155 197.917 345.99 198.442C344.915 201.874 341.134 207.983 338.258 210.935C333.14 216.189 328.238 219.008 321.854 220.37C317.405 221.32 317.03 221.345 306.798 221.37C300.61 221.386 295.661 221.508 294.131 221.682C290.164 222.137 287.439 222.546 286.007 222.904C285.546 223.018 284.525 223.241 283.735 223.398C282.203 223.703 276.4 225.542 275.013 226.162C273.97 226.628 271.387 227.907 270.095 228.599C260.848 233.547 250.317 246.481 246.452 257.639C246.015 258.902 245.941 259.157 245.149 262.175C243.049 270.169 243.32 281.516 245.638 282.714C247.483 283.667 250.875 282.085 250.876 280.271C250.876 279.983 250.983 279.681 251.115 279.6C251.245 279.519 251.354 279.225 251.354 278.946C251.354 278.668 251.454 278.11 251.576 277.707C251.699 277.304 251.923 276.491 252.074 275.9C252.68 273.534 252.807 273.079 253.405 271.127C254.171 268.62 254.905 266.387 255.169 265.755C255.278 265.493 255.497 264.903 255.655 264.443C257.087 260.278 261.601 251.835 263.372 250.008C263.531 249.843 263.981 249.292 264.371 248.781C266.267 246.302 270.206 242.616 275.013 238.823C278.102 236.385 283.506 233.593 286.962 232.649C293.061 230.984 296.59 230.789 314.275 231.138C322.043 231.29 324.484 231.268 325.268 231.036C328.101 230.197 330.143 229.441 332.609 228.319C336.902 226.363 343.914 220.53 347.002 216.345C347.776 215.294 348.545 214.269 348.71 214.067C348.874 213.864 349.08 213.542 349.168 213.35C349.255 213.159 349.651 212.466 350.046 211.809C351.345 209.66 353.649 204.849 355.02 201.426C360.658 187.353 361.412 180.895 357.772 177.855C356.733 176.986 350.555 172.866 347.903 171.273C347.312 170.918 346.075 170.146 345.155 169.558C344.235 168.97 343.118 168.309 342.673 168.087C342.228 167.866 341.26 167.123 340.522 166.437C339.288 165.29 338.819 164.606 338.171 162.995C338.038 162.667 337.819 162.13 337.683 161.801C337.359 161.017 337.032 160.018 336.671 158.699C336.51 158.107 336.289 157.356 336.182 157.028C336.076 156.7 335.593 155.142 335.109 153.566C334.14 150.408 333.502 148.599 332.82 147.064C332.572 146.508 332.37 145.994 332.37 145.923C332.37 145.756 330.453 141.923 329.746 140.678C326.807 135.498 320.969 129.737 313.773 124.92C312.894 124.332 312.068 123.764 311.936 123.658C311.44 123.257 305.631 120.529 303.452 119.674C302.204 119.184 300.967 118.694 300.704 118.586C300.441 118.478 299.527 118.16 298.673 117.881C297.818 117.602 296.904 117.279 296.641 117.166C296.144 116.95 292.803 115.918 291.144 115.469C289.24 114.952 288.687 114.607 288.516 113.825C288.363 113.132 287.639 111.224 286.792 109.287C286.193 107.917 284.043 103.253 282.942 100.934C281.83 98.5918 279.282 94.2094 277.002 90.7155C275.776 88.8373 274.774 87.2078 274.774 87.0948C274.774 86.9819 274.689 86.8541 274.587 86.8105C274.484 86.766 273.657 85.6565 272.748 84.3439C268.102 77.6247 265.864 75.691 263.141 76.0387ZM267.15 95.1584C267.86 95.9202 268.604 96.7532 268.802 97.0078C269.811 98.3016 272.818 103.848 273.584 105.826C273.685 106.089 274.041 106.895 274.374 107.617C276.669 112.584 276.799 112.361 272.025 111.654C269.986 111.352 266.41 111.012 263.118 110.809C260.086 110.621 260.201 110.895 261.499 106.965C262.6 103.631 262.768 103.089 263.294 101.171C263.455 100.581 263.685 99.9113 263.804 99.6835C263.923 99.4556 264.02 99.0049 264.02 98.6829C264.02 98.361 264.115 98.0381 264.232 97.9658C264.349 97.8934 264.503 97.4843 264.573 97.0564C264.645 96.6284 264.77 95.9558 264.854 95.5625C264.936 95.1683 265.054 94.6046 265.114 94.3094C265.286 93.4674 265.758 93.6636 267.15 95.1584ZM305.842 155.61C305.25 155.714 304.282 155.92 303.691 156.069C303.099 156.216 302.159 156.439 301.6 156.563C301.041 156.688 300.1 156.897 299.509 157.028C298.918 157.159 297.95 157.373 297.358 157.505C296.767 157.636 295.825 157.831 295.267 157.938C293.465 158.284 293.233 158.52 293.056 160.189C292.676 163.775 295.963 168.667 300.345 171.039C302.855 172.397 307.016 172.484 307.883 171.197C309.909 168.19 310.322 157.663 308.48 156.013C307.711 155.325 307.577 155.304 305.842 155.61ZM96.2517 162.279C90.5341 162.35 67.7834 162.433 45.6933 162.464C13.0813 162.51 5.29977 162.58 4.29906 162.839C-0.382181 164.053 -1.54853 170.042 2.33928 172.907C4.23757 174.307 4.1979 174.304 19.77 174.119C32.7019 173.965 53.9361 173.779 114.295 173.288C129.536 173.165 135.556 173.04 136.162 172.834C142.809 170.574 143.934 164.159 137.992 162.396C136.723 162.019 120.709 161.975 96.2517 162.279ZM61.5986 196.891L41.1658 197.009L40.0391 197.672C35.7745 200.175 36.1265 205.586 40.6947 207.744L41.9731 208.348H60.6277C85.2161 208.348 104.135 207.991 105.472 207.503C111.131 205.434 110.468 198.852 104.413 196.989C103.506 196.709 101.353 196.659 92.6674 196.709C86.8178 196.743 72.8376 196.825 61.5986 196.891Z" fill="#2B97AA"/>
</svg>
