<svg width="708" height="129" viewBox="0 0 708 129" fill="none" xmlns="http://www.w3.org/2000/svg">
<path d="M26.4375 100.438C30.2396 101.948 33.2344 103.12 35.4219 103.953C37.6094 104.786 39.901 105.516 42.2969 106.141C42.974 104.422 43.3125 102.078 43.3125 99.1094C43.3125 95.099 43.026 87.7552 42.4531 77.0781C41.6198 62.8073 41.2031 51.8698 41.2031 44.2656C41.2031 39.0052 41.3594 34.474 41.6719 30.6719L28.7812 29.8906L28.5469 54.5C24.6406 55.8021 20.2396 56.4531 15.3438 56.4531C14.0938 56.4531 13.1562 56.4271 12.5312 56.375C10.8125 55.0208 9.01562 52.8854 7.14062 49.9688C5.31771 47.0521 3.80729 43.7708 2.60938 40.125C1.41146 36.4792 0.8125 32.9635 0.8125 29.5781C0.8125 23.7448 1.77604 19.2917 3.70312 16.2188C5.63021 13.1458 8.33854 11.0365 11.8281 9.89062C15.3177 8.69271 19.9792 7.91146 25.8125 7.54688C34.875 7.02604 45.526 6.63542 57.7656 6.375C70.0573 6.0625 81.8021 5.90625 93 5.90625C94.5104 7.83333 95.6302 9.99479 96.3594 12.3906C97.1406 14.7865 97.5312 17.1823 97.5312 19.5781C97.5312 24.0573 96.3854 27.8073 94.0938 30.8281C91.8021 33.849 88.4167 35.3594 83.9375 35.3594C81.0208 35.3594 77.5052 34.8385 73.3906 33.7969C72.4531 58.276 71.099 80.8802 69.3281 101.609C68.9635 105.62 68.3646 109.161 67.5312 112.234C66.6979 115.307 65.4219 117.99 63.7031 120.281C61.5677 123.094 58.625 125.177 54.875 126.531C51.125 127.885 46.9844 128.562 42.4531 128.562C38.1823 128.562 33.9635 127.807 29.7969 126.297C25.6823 124.786 22.5833 122 20.5 117.938C20.5521 114.552 20.9688 111.557 21.75 108.953C22.5312 106.297 24.0938 103.458 26.4375 100.438ZM95.6562 59.6562C94.7708 55.8542 94.1979 53.0677 93.9375 51.2969C93.6771 49.526 93.5469 46.8438 93.5469 43.25C96.6198 40.3333 99.9271 38.1458 103.469 36.6875C107.01 35.1771 110.995 34.4219 115.422 34.4219C128.859 34.4219 135.578 41.1667 135.578 54.6562C135.578 58.25 135.24 62.4167 134.562 67.1562C133.938 71.8958 133.026 77.8594 131.828 85.0469C131.672 85.9844 131.255 88.5104 130.578 92.625C129.901 96.7396 129.432 100.177 129.172 102.938C130.057 103.875 131.151 104.526 132.453 104.891C133.078 104.891 134.51 103.615 136.75 101.062C139.042 98.4583 141.49 95.3073 144.094 91.6094C146.698 87.9115 148.833 84.5 150.5 81.375C150.917 73.9271 151.49 67.0781 152.219 60.8281L144.016 59.1875C143.339 56.5833 142.87 54.2917 142.609 52.3125C142.349 50.3333 142.219 48.224 142.219 45.9844L142.297 43.7969C144.172 41.401 146.984 39.2396 150.734 37.3125C154.484 35.3854 158.781 34.4219 163.625 34.4219C177.062 34.4219 183.781 41.1667 183.781 54.6562C183.781 60.125 182.87 67.3385 181.047 76.2969C179.224 85.2031 177.089 94.2135 174.641 103.328L183.625 99.4219C185.135 101.036 186.464 103.016 187.609 105.359C188.807 107.651 189.562 110.307 189.875 113.328C189.146 114.891 187.557 116.896 185.109 119.344C182.661 121.74 179.667 123.875 176.125 125.75C172.583 127.625 168.885 128.562 165.031 128.562C160.708 128.562 157.375 127.286 155.031 124.734C152.74 122.13 151.594 118.823 151.594 114.812C151.594 113.771 151.854 111.635 152.375 108.406C152.948 105.177 153.417 102.938 153.781 101.688L151.594 100.984C148.99 110.099 145.396 116.974 140.812 121.609C136.281 126.245 131.099 128.562 125.266 128.562C116.88 128.562 110.969 125.802 107.531 120.281C104.094 114.708 102.375 107.807 102.375 99.5781C102.375 84.1094 102.896 71.1927 103.938 60.8281L95.6562 59.6562ZM204.328 106.062C204.328 103.823 204.38 98.3281 204.484 89.5781C204.641 72.3906 204.719 62.9896 204.719 61.375L197.531 60.2031C196.542 57.2344 195.839 54.4479 195.422 51.8438C195.005 49.2396 194.797 46.6094 194.797 43.9531C194.797 42.8594 194.823 42.026 194.875 41.4531C195.76 40.6719 197.141 39.7344 199.016 38.6406C200.891 37.5469 203.104 36.5833 205.656 35.75C208.208 34.8646 210.812 34.4219 213.469 34.4219C219.667 34.4219 224.146 35.8021 226.906 38.5625C229.719 41.3229 231.125 45.3594 231.125 50.6719C231.125 53.901 230.708 58.0417 229.875 63.0938C229.094 68.0938 228.286 71.6615 227.453 73.7969L230.266 74.2656L234.953 56.6094C237.036 48.6406 239.641 42.9635 242.766 39.5781C245.891 36.1406 249.406 34.4219 253.312 34.4219C255.865 34.4219 258.391 34.8125 260.891 35.5938C263.443 36.375 265.396 37.3385 266.75 38.4844C268.208 41.7135 268.938 46.0104 268.938 51.375C268.938 55.125 268.573 58.849 267.844 62.5469C267.115 66.1927 266.177 69.1354 265.031 71.375L248.625 69.1875C245.292 72.7292 241.75 77.651 238 83.9531C234.25 90.2031 231.255 95.9583 229.016 101.219L228.938 105.281L244.094 101.688C246.646 105.594 248.13 110.229 248.547 115.594C248.547 115.906 247.375 117.182 245.031 119.422C242.688 121.661 239.589 123.745 235.734 125.672C231.932 127.547 227.557 128.484 222.609 128.484C217.505 128.484 213.234 127.13 209.797 124.422C206.411 121.661 204.615 117.026 204.406 110.516C204.354 109.734 204.328 108.25 204.328 106.062ZM278 79.7344C278 60.4635 278.495 42.6771 279.484 26.375L270.656 24.8125C269.406 20.0208 268.781 14.8646 268.781 9.34375C269.562 8.35417 271.021 7.13021 273.156 5.67188C275.292 4.21354 277.766 2.9375 280.578 1.84375C283.443 0.75 286.281 0.203125 289.094 0.203125C295.5 0.203125 300.266 1.84375 303.391 5.125C306.516 8.40625 308.078 13.4323 308.078 20.2031C308.078 24.2135 307.714 30.4115 306.984 38.7969C306.307 47.1302 305.318 55.1771 304.016 62.9375L301.828 76.2188L304.328 77.0781L306.984 66.7656C309.484 57.1302 313.26 49.3438 318.312 43.4062C323.417 37.4167 329.797 34.4219 337.453 34.4219C343.182 34.4219 347.844 35.6719 351.438 38.1719C355.083 40.6198 357.714 43.875 359.328 47.9375C360.943 51.9479 361.75 56.375 361.75 61.2188C361.75 67.7812 361.125 75.151 359.875 83.3281C358.625 91.4531 356.958 99.0573 354.875 106.141C352.844 113.068 349.458 118.536 344.719 122.547C340.031 126.557 334.172 128.562 327.141 128.562C324.38 128.562 320.839 128.042 316.516 127C312.193 125.958 307.401 124.266 302.141 121.922C301.359 123.224 300.474 124.5 299.484 125.75C298.547 127 297.714 127.938 296.984 128.562C293.13 128.562 289.901 128.25 287.297 127.625C284.693 127 282.74 126.349 281.438 125.672C280.135 124.943 279.484 124.5 279.484 124.344C278.495 113.615 278 98.7448 278 79.7344ZM325.656 107.938C326.281 107.938 326.672 107.885 326.828 107.781C328.703 100.75 329.641 90.099 329.641 75.8281C329.641 73.3802 329.51 71.401 329.25 69.8906C328.052 68.3802 326.333 67.625 324.094 67.625C323.365 68.25 320.865 72.3646 316.594 79.9688C312.323 87.5208 309.172 93.3281 307.141 97.3906V101.141C310.005 103.12 313.312 104.76 317.062 106.062C320.812 107.312 323.677 107.938 325.656 107.938ZM371.047 80.8281C371.047 71.401 372.557 63.224 375.578 56.2969C378.599 49.3698 383.234 44.0052 389.484 40.2031C395.734 36.349 403.573 34.4219 413 34.4219C423.417 34.4219 431.594 36.375 437.531 40.2812C443.469 44.1354 447.609 49.5 449.953 56.375C452.349 63.25 453.547 71.6615 453.547 81.6094C453.547 90.6198 451.958 98.6667 448.781 105.75C445.656 112.781 440.917 118.354 434.562 122.469C428.26 126.531 420.526 128.562 411.359 128.562C397.193 128.562 386.932 124.214 380.578 115.516C374.224 106.766 371.047 95.2031 371.047 80.8281ZM414.562 105.672C417.219 105.672 418.833 105.464 419.406 105.047C420.604 102.964 421.516 100.021 422.141 96.2188C422.766 92.4167 423.078 88.3021 423.078 83.875C423.078 79.8125 422.818 76.0104 422.297 72.4688C421.776 68.875 421.047 66.0625 420.109 64.0312C419.536 63.3542 418.391 62.8594 416.672 62.5469C414.953 62.1823 413.078 62 411.047 62C408.391 62 406.568 62.2865 405.578 62.8594C402.974 67.3385 401.672 73.5625 401.672 81.5312C401.672 85.2812 401.958 89.1094 402.531 93.0156C403.104 96.9219 403.833 100.464 404.719 103.641C405.344 104.318 406.62 104.839 408.547 105.203C410.474 105.516 412.479 105.672 414.562 105.672Z" fill="black"/>
<path d="M463.156 67.3125C463.156 55.4896 464.901 44.9688 468.391 35.75C471.932 26.4792 477.453 19.1615 484.953 13.7969C492.453 8.43229 501.932 5.75 513.391 5.75C521.203 5.75 529.458 6.76562 538.156 8.79688C540.969 10.4635 543.417 12.2083 545.5 14.0312C547.635 15.8021 549.667 17.9635 551.594 20.5156C551.594 24.2135 551.099 29.1354 550.109 35.2812C549.12 41.375 547.87 47.0781 546.359 52.3906C544.901 57.651 543.495 61.0625 542.141 62.625C540.786 63.3021 539.641 63.7708 538.703 64.0312C537.766 64.2396 536.307 64.3438 534.328 64.3438C531.88 64.3438 529.589 64.1615 527.453 63.7969C525.318 63.4323 523.703 62.9375 522.609 62.3125L519.875 35.9844C516.177 34.9427 511.047 34.4219 504.484 34.4219C502.714 34.4219 501.411 34.4479 500.578 34.5C498.339 41.6875 497.089 51.349 496.828 63.4844C496.776 64.9427 496.75 67.1562 496.75 70.125C496.75 77.1042 497.115 82.7552 497.844 87.0781C498.521 91.1406 499.25 94.1875 500.031 96.2188C500.812 98.25 502.167 99.8125 504.094 100.906C506.073 102 509.016 102.547 512.922 102.547C518.182 102.547 523.026 101.792 527.453 100.281C531.932 98.7188 536.802 96.4531 542.062 93.4844C544.042 95.6198 545.552 97.3646 546.594 98.7188C547.688 100.073 548.677 101.74 549.562 103.719C550.5 105.698 551.125 107.964 551.438 110.516C550.604 112.234 548.391 114.526 544.797 117.391C541.203 120.255 536.49 122.833 530.656 125.125C524.823 127.417 518.286 128.562 511.047 128.562C494.12 128.562 481.906 123.276 474.406 112.703C466.906 102.13 463.156 87 463.156 67.3125ZM584.484 75.5156C587.557 75.5156 590.943 75.8281 594.641 76.4531C598.391 77.0781 601.828 77.8333 604.953 78.7188V76.2969C604.953 74.6823 604.901 72.8854 604.797 70.9062C604.745 68.9271 604.641 67.625 604.484 67C604.016 66.1146 602.661 65.2031 600.422 64.2656C598.234 63.3281 594.641 62.8594 589.641 62.8594C586.568 62.8594 583.391 63.25 580.109 64.0312C576.88 64.7604 573.286 65.75 569.328 67C567.193 63.4583 565.474 60.099 564.172 56.9219C562.922 53.6927 562.297 50.4635 562.297 47.2344C562.297 46.2448 562.375 45.2552 562.531 44.2656C570.969 37.7031 581.88 34.4219 595.266 34.4219C602.661 34.4219 609.224 35.2552 614.953 36.9219C620.682 38.5885 625.396 41.8177 629.094 46.6094C632.792 51.401 634.641 58.1979 634.641 67C634.641 75.5938 633.625 83.9271 631.594 92C629.615 100.021 628.599 104.109 628.547 104.266L639.875 99.4219C641.385 101.036 642.714 103.016 643.859 105.359C645.057 107.651 645.812 110.307 646.125 113.328C645.396 114.891 643.807 116.896 641.359 119.344C638.911 121.74 635.917 123.875 632.375 125.75C628.833 127.625 625.135 128.562 621.281 128.562C616.958 128.562 613.677 127.286 611.438 124.734C609.25 122.182 608.156 118.875 608.156 114.812C608.156 112.521 608.495 110.203 609.172 107.859L606.828 107.156C605.37 115.385 602.271 121.01 597.531 124.031C592.792 127.052 587.557 128.562 581.828 128.562C578.078 128.562 574.458 127.521 570.969 125.438C567.479 123.302 564.641 120.229 562.453 116.219C560.266 112.156 559.172 107.417 559.172 102C559.172 93.3542 561.333 86.7917 565.656 82.3125C569.979 77.7812 576.255 75.5156 584.484 75.5156ZM593.391 105.281C594.693 105.021 596.229 104.292 598 103.094C599.823 101.896 601.438 100.464 602.844 98.7969C604.25 97.1302 605.083 95.5417 605.344 94.0312L604.875 92.1562C602.115 91.7917 599.172 91.6094 596.047 91.6094C593.391 91.6094 591.568 91.8177 590.578 92.2344C588.911 94.1094 588.078 96.1927 588.078 98.4844C588.078 100.151 588.495 101.661 589.328 103.016C590.214 104.37 591.568 105.125 593.391 105.281ZM656.359 83.875C656.359 75.3854 656.49 67.651 656.75 60.6719L648.234 59.1875C647.557 56.5833 647.089 54.2917 646.828 52.3125C646.568 50.3333 646.438 48.224 646.438 45.9844L646.594 44.4219C646.75 43.6927 646.828 43.0938 646.828 42.625L658.156 40.125C658.417 36.8958 659.016 33.25 659.953 29.1875C660.891 25.125 661.88 22.1302 662.922 20.2031C664.589 18.9531 666.594 18.0156 668.938 17.3906C671.281 16.7656 673.807 16.4531 676.516 16.4531C678.807 16.4531 681.021 16.6875 683.156 17.1562C685.344 17.5729 687.245 18.1458 688.859 18.875C689.016 20.6458 689.094 22.6771 689.094 24.9688C689.094 28.7188 688.911 32.9635 688.547 37.7031L702.297 35.2031C704.224 38.5365 705.188 42.1562 705.188 46.0625C705.188 48.7708 704.849 51.2188 704.172 53.4062C703.547 55.5938 702.661 58.0677 701.516 60.8281C698.078 61.401 693.365 61.7656 687.375 61.9219C686.646 70.4115 685.031 82.8854 682.531 99.3438L682.141 102L682.297 102.156L700.656 96.4531C704.458 99.6302 706.776 104.526 707.609 111.141C707.609 111.505 705.917 113.224 702.531 116.297C699.198 119.318 695.005 122.13 689.953 124.734C684.901 127.286 679.406 128.562 673.469 128.562C663.104 128.562 657.583 122.234 656.906 109.578C656.542 103.172 656.359 94.6042 656.359 83.875Z" fill="#2B97AA"/>
</svg>
